<svg width="208" height="31" viewBox="0 0 208 31" fill="none" xmlns="http://www.w3.org/2000/svg">
<path d="M0.425669 17.12L1.83367 17.568C1.32167 19.2 0.937669 21.76 3.43367 21.76C7.01767 21.76 8.48967 9.12 9.92967 3.296C10.2177 2.112 11.1137 0 13.9297 0C16.2977 0 18.0897 2.08 17.5137 4.896C17.0017 7.136 13.8657 15.072 17.5137 14.72C18.6017 14.624 20.1697 13.12 20.9377 12.416C21.8017 8.128 23.0497 3.456 23.7537 0.448H25.2257C24.1377 5.28 21.7377 13.888 21.5457 18.752C21.4497 20.96 21.5457 21.856 22.7937 21.728C24.0737 21.6 24.6177 20.928 25.1937 20.416L26.1537 21.568C25.5777 22.016 24.7457 23.008 22.9217 23.2C19.5297 23.52 20.0417 19.552 20.0737 18.688C20.1057 17.536 20.2977 16.192 20.5217 14.752C19.6577 15.424 18.6337 16.096 17.6417 16.192C11.5617 16.736 15.5937 6.688 16.0417 4.576C16.4257 2.752 15.4017 1.472 13.9297 1.472C13.0657 1.472 11.8177 1.728 11.3377 3.616C9.54567 11.04 8.48967 23.232 3.43367 23.232C0.425669 23.232 -0.694331 20.768 0.425669 17.12Z" fill="black"/>
<path d="M35.6177 8.448H37.0897L35.5537 18.816C35.2657 20.896 35.5217 21.792 36.5777 21.792C36.9937 21.792 37.4417 21.696 37.8257 21.536L38.3377 22.912C37.7937 23.136 37.1857 23.296 36.5777 23.296C35.0097 23.296 34.3377 22.304 34.1137 21.216C32.9297 22.528 31.2977 23.2 29.6977 23.2C26.6257 23.2 23.6497 20.672 24.3537 15.2C24.9617 10.368 28.0337 8.16 30.9137 8.16C32.6737 8.16 34.3377 8.992 35.2977 10.56C35.4257 9.792 35.5217 9.056 35.6177 8.448ZM25.8257 15.392C25.2817 19.808 27.4257 21.76 29.7297 21.76C31.7777 21.76 33.8897 20.224 34.2737 17.504C34.4017 16.64 34.4977 15.776 34.6257 14.944C35.1057 11.456 33.1857 9.6 30.9777 9.6C28.7697 9.6 26.3377 11.456 25.8257 15.392Z" fill="black"/>
<path d="M47.1424 8.448H48.6144C47.9744 11.104 45.7344 15.04 45.5744 18.752C45.4784 20.832 45.8304 21.728 46.9184 21.728C47.3344 21.728 47.7824 21.632 48.1664 21.472L48.6784 22.848C48.1344 23.072 47.4944 23.232 46.8864 23.232C43.8784 23.232 44.0704 19.52 44.1024 18.688C44.1984 16.032 45.2864 13.408 46.1504 11.232C45.9584 11.296 45.7664 11.328 45.6064 11.328C44.1664 11.328 43.2064 9.536 41.8624 9.536C41.0944 9.536 40.2304 10.08 39.0464 11.84L37.7984 11.04C39.4304 8.576 40.6464 7.84 41.6704 7.84C43.1744 7.84 44.2304 9.536 45.4464 9.536C45.9584 9.536 46.5024 9.248 47.1424 8.448Z" fill="black"/>
<path d="M49.4794 26.432H50.9194C50.7274 27.968 51.3674 29.024 53.6394 29.056C55.8794 29.088 56.9034 27.744 57.2874 24.928L57.9594 20.224C56.2314 21.984 53.9274 23.2 52.5514 23.2C47.6554 23.2 49.8634 14.816 50.9194 8.448H52.6154C52.2634 10.24 49.4794 21.728 52.5514 21.728C53.7034 21.728 56.1034 20.16 58.3114 17.632L59.6234 8.416H61.1594L58.7594 25.088C58.2474 28.544 56.7754 30.528 53.4154 30.496C50.8874 30.464 49.1274 28.832 49.4794 26.432Z" fill="black"/>
<path d="M71.5604 17.12L72.9684 17.568C72.3924 19.456 73.4164 21.76 75.8484 21.76C81.9284 21.76 84.1684 9.088 84.6804 1.984C79.0484 3.072 75.8804 4.736 75.8804 7.04C75.8804 8.256 76.6804 8.672 77.7044 8.672C78.7604 8.672 80.0404 8.224 80.8724 7.776L81.5764 9.056C80.2964 9.76 78.9204 10.144 77.7364 10.144C75.8484 10.144 74.4084 9.184 74.4084 7.04C74.4084 2.944 80.6164 1.152 86.2804 0.192001L86.2484 0.832001C85.8964 7.84 83.7204 23.232 75.8484 23.232C72.0724 23.232 70.7924 19.584 71.5604 17.12Z" fill="black"/>
<path d="M88.8869 8.448L88.5349 11.04C90.9669 8.992 92.8869 8.096 94.8389 8.096C97.7189 8.096 97.3029 11.616 96.7589 15.072C96.2149 18.432 95.5429 21.728 97.5909 21.728C97.9429 21.728 98.2629 21.632 98.5829 21.408L99.1269 22.816C98.6149 23.072 98.1349 23.2 97.5909 23.2C93.9429 23.2 94.6469 18.848 95.2549 15.072C95.7029 12.16 96.0549 9.568 94.8389 9.568C92.7909 9.568 90.8069 10.752 88.1829 13.6L86.9349 22.848H85.3989L87.4149 8.448H88.8869Z" fill="black"/>
<path d="M102.941 0.448H104.413L102.365 15.424L109.213 8.448H111.325L105.309 14.464C106.173 17.44 107.197 21.696 109.597 21.696C109.885 21.696 110.173 21.632 110.493 21.504L111.005 22.848C110.461 23.072 109.949 23.168 109.469 23.168C106.205 23.168 104.829 18.368 104.093 15.648L102.077 17.664L101.373 22.848H99.8372L102.941 0.448Z" fill="black"/>
<path d="M111.103 15.52C111.935 9.92 115.391 7.776 118.495 8.064C121.535 8.32 124.383 9.984 123.487 16.192C122.943 20.032 120.703 23.2 116.575 23.2C113.375 23.2 110.367 20.704 111.103 15.52ZM112.575 15.712C111.999 19.68 113.919 21.408 116.031 21.664C116.223 21.664 116.383 21.696 116.575 21.696C119.807 21.696 121.599 19.232 122.015 16C122.719 11.136 120.735 9.728 118.367 9.536C118.239 9.536 118.111 9.504 117.983 9.504C115.839 9.504 113.247 11.04 112.575 15.712Z" fill="black"/>
<path d="M126.764 8.448H128.3C127.532 12.992 125.324 21.728 128.46 21.728C130.348 21.728 133.004 19.68 134.22 15.84C134.86 13.792 135.084 10.72 134.54 8.448H136.044C136.492 10.656 136.332 13.696 135.724 15.84C134.444 20.256 131.276 23.2 128.46 23.2C123.276 23.2 125.868 13.856 126.764 8.448Z" fill="black"/>
<path d="M148.836 8.448H150.308L148.772 18.816C148.484 20.896 148.74 21.792 149.796 21.792C150.212 21.792 150.66 21.696 151.044 21.536L151.556 22.912C151.012 23.136 150.404 23.296 149.796 23.296C148.228 23.296 147.556 22.304 147.332 21.216C146.148 22.528 144.516 23.2 142.916 23.2C139.844 23.2 136.868 20.672 137.572 15.2C138.18 10.368 141.252 8.16 144.132 8.16C145.892 8.16 147.556 8.992 148.516 10.56C148.644 9.792 148.74 9.056 148.836 8.448ZM139.044 15.392C138.5 19.808 140.644 21.76 142.948 21.76C144.996 21.76 147.108 20.224 147.492 17.504C147.62 16.64 147.716 15.776 147.844 14.944C148.324 11.456 146.404 9.6 144.196 9.6C141.988 9.6 139.556 11.456 139.044 15.392Z" fill="black"/>
<path d="M180.428 19.328L181.516 20.352C179.628 22.4 178.124 23.136 176.844 23.136C174.764 23.136 173.228 21.184 171.244 19.872C169.932 22.176 168.3 23.232 166.54 23.232C162.284 23.232 161.836 17.152 167.564 17.152C168.78 17.152 169.804 17.376 170.668 17.76C170.956 17.056 171.244 16.256 171.5 15.296C172.428 11.84 173.612 5.568 174.156 2.08C168.588 3.168 165.58 4.768 165.58 7.072C165.58 8.288 166.38 8.704 167.404 8.704C168.46 8.704 169.74 8.256 170.572 7.808L171.276 9.088C169.996 9.792 168.62 10.176 167.436 10.176C165.548 10.176 164.108 9.216 164.108 7.072C164.108 2.976 170.316 1.184 175.98 0.224001C175.084 5.376 174.284 10.592 172.908 15.68C172.62 16.736 172.3 17.632 171.948 18.464C173.964 19.808 175.116 21.664 176.748 21.664C177.708 21.664 178.86 21.024 180.428 19.328ZM166.54 21.76C167.564 21.76 168.844 21.152 169.996 19.168C169.26 18.848 168.46 18.624 167.564 18.624C163.852 18.624 164.172 21.76 166.54 21.76Z" fill="black"/>
<path d="M172.52 26.72H173.96C173.768 28.256 174.408 29.312 175.72 29.344C175.784 29.344 175.816 29.344 175.88 29.344C177.992 29.344 178.984 27.968 179.368 25.216L181.608 8.448H183.144L180.84 25.376C180.36 28.768 179.016 30.784 175.784 30.784C175.72 30.784 175.688 30.784 175.624 30.784C173.768 30.752 172.168 29.12 172.52 26.72ZM181.896 6.688L182.344 3.52H183.816L183.368 6.688H181.896Z" fill="black"/>
<path d="M183.884 15.52C184.716 9.92 188.172 7.776 191.276 8.064C194.316 8.32 197.164 9.984 196.268 16.192C195.724 20.032 193.484 23.2 189.356 23.2C186.156 23.2 183.148 20.704 183.884 15.52ZM185.356 15.712C184.78 19.68 186.7 21.408 188.812 21.664C189.004 21.664 189.164 21.696 189.356 21.696C192.588 21.696 194.38 19.232 194.796 16C195.5 11.136 193.516 9.728 191.148 9.536C191.02 9.536 190.892 9.504 190.764 9.504C188.62 9.504 186.028 11.04 185.356 15.712Z" fill="black"/>
<path d="M207.649 13.248L206.177 13.056C206.529 10.624 204.993 9.6 203.489 9.6C202.305 9.6 201.089 10.24 200.769 11.264C200.289 12.736 200.897 13.6 203.681 14.592C206.145 15.456 207.457 17.184 207.233 19.296C206.945 21.76 205.025 23.104 202.657 23.104C202.081 23.104 201.441 23.008 200.833 22.848C197.889 22.016 197.153 19.36 197.473 17.088L198.945 17.28C198.689 19.168 199.297 20.896 201.217 21.44C201.729 21.6 202.209 21.664 202.657 21.664C204.417 21.664 205.569 20.64 205.761 19.104C205.921 17.888 205.249 16.704 203.169 16C200.385 14.976 198.497 13.632 199.361 10.816C199.905 9.088 201.665 8.16 203.457 8.16C205.793 8.16 208.129 9.76 207.649 13.248Z" fill="black"/>
</svg>
